<?xml version="1.0" encoding="utf-8"?>
<!-- Generator: Adobe Illustrator 19.1.0, SVG Export Plug-In . SVG Version: 6.00 Build 0)  -->
<svg version="1.1" id="Layer_1" xmlns="http://www.w3.org/2000/svg" xmlns:xlink="http://www.w3.org/1999/xlink" x="0px" y="0px"
	 viewBox="0 0 640 640" style="enable-background:new 0 0 640 640;" xml:space="preserve">
<style type="text/css">
	.st0{fill:#F1EEDF;}
	.st1{fill:#6F4433;}
	.st2{fill:#F89828;}
	.st3{fill:#F25A32;}
	.st4{fill:#746C69;}
	.st5{fill:#D39C70;}
	.st6{fill:#DC9E98;}
	.st7{fill:#FFFFFF;}
</style>
<g>
	<path class="st4" d="M601.8,454.6c-12.6,18.1-49.8,13.9-83.1-9.3c-33.3-23.2-50.2-56.6-37.6-74.7c12.6-18.1,48.6-34.6,83.1,9.3
		C589.3,411.8,614.4,436.5,601.8,454.6z"/>
	<path class="st4" d="M575.1,470c-17.9,0-39.4-7.8-58.8-21.3c-35.8-24.9-52.8-60.3-38.7-80.5c6.6-9.4,20.8-20.5,39.3-20.5
		c12.4,0,31.3,5.1,50.5,29.6c3.8,4.9,7.7,9.6,11.4,14.1c21.7,26.6,38.8,47.7,26.4,65.5C599.4,465.3,588.7,470,575.1,470z M517,356.1
		c-15.3,0-27.1,9.1-32.5,16.9c-11,15.9,5.7,47.4,36.6,68.9c18.1,12.6,37.8,19.8,54.1,19.8c7.6,0,17.8-1.6,23.2-9.4
		c8.8-12.7-6.5-31.6-26-55.5c-3.7-4.6-7.6-9.4-11.5-14.3C547.3,365.2,532.1,356.1,517,356.1z"/>
</g>
<g>
	<path class="st4" d="M163.3,447.6c12.6,18.1,49.8,13.9,83.1-9.3c33.3-23.2,50.2-56.6,37.6-74.7c-12.6-18.1-48.6-34.6-83.1,9.3
		C175.8,404.8,150.7,429.5,163.3,447.6z"/>
	<path class="st4" d="M190,463L190,463c-13.6,0-24.3-4.6-30.1-13c-12.4-17.9,4.7-38.9,26.3-65.5c3.7-4.6,7.6-9.3,11.4-14.2
		c19.2-24.4,38.1-29.6,50.5-29.6c18.5,0,32.8,11,39.3,20.5c7,10,6.5,24.1-1.3,39.7c-7.4,14.7-20.7,29.2-37.4,40.8
		C229.4,455.2,207.9,463,190,463z M248.2,349.1c-15.2,0-30.4,9.1-44,26.4c-3.9,4.9-7.8,9.7-11.5,14.3
		c-19.4,23.9-34.8,42.7-25.9,55.4c5.4,7.8,15.6,9.4,23.2,9.4c16.3,0,36-7.2,54.1-19.8c15.6-10.8,27.9-24.2,34.7-37.7
		c6.4-12.7,7.1-23.8,1.9-31.2C275.2,358.1,263.5,349.1,248.2,349.1z"/>
</g>
<path class="st4" d="M595.8,378.2c2.6-7.9,4-16.4,4-25.5c0-101.3-101.6-183.5-226.8-183.5c-11.6,0-23.3,0.8-34.9,2.2
	c-107.3,13.3-208.4,85.2-195.4,166.8c58.7,0.7,106,48.4,106,107.2c0,0.1,0,0.2,0,0.3c34.2,12.7,75.8,20,124.2,20
	c46.3,0,89.3-4.6,125.2-14.4C511.9,410,550.2,379.9,595.8,378.2z"/>
<path class="st7" d="M373,470c-47,0-89.3-6.8-125.7-20.3c-1.6-0.6-2.7-2.2-2.7-3.9c0-0.1,0-0.4,0-0.6c0-55.9-45.7-102.1-101.9-102.8
	c-2,0-3.8-1.5-4.1-3.5c-4.4-27.4,3.5-55.4,22.9-81.2c34.6-46,103.7-81.5,176.1-90.4c11.9-1.5,23.8-2.2,35.4-2.2
	c127.4,0,231,84.2,231,187.6c0,9.1-1.4,17.9-4.3,26.8c-0.5,1.7-2.1,2.8-3.8,2.9c-42.7,1.6-80.4,29.9-93.8,70.3
	c-0.4,1.3-1.5,2.3-2.9,2.7C463.8,465.1,421.4,470,373,470z M252.9,442.9c34.8,12.5,75.2,18.8,120.1,18.8c46.7,0,87.7-4.6,121.9-13.7
	c14.8-41.6,53.6-70.8,97.7-73.7c2-7.1,3-14.2,3-21.5c0-98.9-99.9-179.3-222.7-179.3c-11.2,0-22.8,0.7-34.4,2.2
	c-70.3,8.7-137.2,42.9-170.5,87.2c-17.1,22.8-24.6,47.4-21.8,71.4C204.6,336.7,251.6,384.5,252.9,442.9z"/>
<g>
	<path class="st4" d="M248.2,331.9c-17.1,49.6-77.7,73.7-135.3,53.7c-57.6-19.9-90.4-76.3-73.2-125.8
		c17.1-49.6,77.7-73.6,135.3-53.7C232.5,226,265.3,282.3,248.2,331.9z"/>
	<path class="st4" d="M153.9,396.5c-14.3,0-28.5-2.4-42.3-7.2c-28.7-9.9-52.4-28.9-66.7-53.5C30.5,311,27.3,283.6,36,258.5
		c13.3-38.5,51.7-63.3,97.9-63.3c14.2,0,28.5,2.4,42.3,7.2c28.7,9.9,52.4,28.9,66.7,53.5c14.4,24.8,17.6,52.2,8.9,77.2
		C238.5,371.6,200.1,396.5,153.9,396.5z M133.9,202.9c-42.8,0-78.4,22.8-90.6,58.1c-7.9,22.9-5,48.1,8.3,70.9
		c13.4,23,35.6,40.8,62.6,50.1c13,4.5,26.4,6.8,39.8,6.8c42.8,0,78.4-22.8,90.6-58.1c7.9-22.9,5-48.1-8.3-70.9
		c-13.4-23-35.6-40.8-62.6-50.1C160.7,205.2,147.3,202.9,133.9,202.9z"/>
</g>
<path class="st7" d="M513.7,313.5l64.6-39l-4.3-7.1l-63.8,38.6l-64.4-51.5l24.4-67.6l-7.8-2.8l-25.1,69.3l-45.3,37l-39.2-36.5
	l-10.5-82.9L334,172l10.4,82L288,296.8l-37.3-22.4l-4.3,7.1l37.6,22.6l-3.8,56.9l-48.7,25.5l3.9,7.4l48.5-25.4l52.4,36.1h-0.6v60.1
	h8.3v-60.1h-0.3l48.6-26.1l50.9,16.9l-25.4,67.3l7.8,2.9l26.2-69.3l49.6-13.1l29,22.2l5.1-6.6l-28.7-22L513.7,313.5z M348.6,261.3
	l39,36.4l-1.5,74.5L339.9,397l-51.5-35.5l3.9-57.5L348.6,261.3z M448.6,388.3l-54.1-18l1.4-72.5l44.9-36.7l64.5,51.6l-7.1,62.3
	L448.6,388.3z"/>
<path class="st7" d="M137.2,250.9c0,6.4-2.7,11.6-6.1,11.6c-3.4,0-6.1-5.2-6.1-11.6c0-6.4,2.7-11.6,6.1-11.6
	C134.5,239.2,137.2,244.4,137.2,250.9z"/>
<path class="st7" d="M175.6,266.4c-4.2,6.7-10.3,10.3-13.8,8.1c-3.5-2.2-2.9-9.3,1.3-16c4.2-6.7,10.4-10.3,13.8-8.1
	C180.3,252.6,179.8,259.8,175.6,266.4z"/>
<path class="st7" d="M155.3,295.9c0,6.7-10.8,12.1-24.1,12.1c-13.3,0-24.1-5.4-24.1-12.1c0-6.7,10.8-12.1,24.1-12.1
	C144.5,283.8,155.3,289.2,155.3,295.9z"/>
</svg>
