<?xml version="1.0" encoding="utf-8"?>
<!-- Generator: Adobe Illustrator 19.1.0, SVG Export Plug-In . SVG Version: 6.00 Build 0)  -->
<svg version="1.1" id="Layer_1" xmlns="http://www.w3.org/2000/svg" xmlns:xlink="http://www.w3.org/1999/xlink" x="0px" y="0px"
	 viewBox="0 0 640 640" style="enable-background:new 0 0 640 640;" xml:space="preserve">
<style type="text/css">
	.st0{fill:#F1EEDF;}
	.st1{fill:#6F4433;}
	.st2{fill:#F89828;}
	.st3{fill:#F25A32;}
	.st4{fill:#746C69;}
	.st5{fill:#D39C70;}
	.st6{fill:#DC9E98;}
	.st7{fill:#FFFFFF;}
</style>
<g>
	<path class="st4" d="M328.5,589.9c-5,0-9.1-4.1-9.1-9.1V336.5c0-5,4.1-9.1,9.1-9.1c5,0,9.1,4.1,9.1,9.1v244.4
		C337.5,585.9,333.5,589.9,328.5,589.9z"/>
	<g>
		<path class="st4" d="M328.5,601.7c-106.2-8.3-204.3-126.2-149-160C250.5,398.1,276,565.8,328.5,601.7z"/>
		<path class="st4" d="M328.5,606.6c-0.1,0-0.2,0-0.4,0c-78.1-6.1-155.7-72.3-167.9-123c-4.9-20.3,1.1-36.7,16.7-46.2
			c8.6-5.2,17-7.9,25.1-7.9c34.3,0,56.9,46.1,78.8,90.7c15.5,31.7,31.6,64.5,50.5,77.4c1.9,1.3,2.6,3.6,1.9,5.8
			C332.5,605.3,330.6,606.6,328.5,606.6z M202,439.5c-6.3,0-13,2.2-19.9,6.4c-12,7.3-16.1,19.2-12.2,35.4
			c10.6,44.2,74.8,100.9,143.3,113.4c-15.2-16.8-28-42.8-41.3-70.1C251.3,482.7,230.1,439.5,202,439.5z"/>
	</g>
	<g>
		<path class="st4" d="M477.5,441.6c55.3,33.8-42.8,151.7-149,160C380.9,565.8,406.4,398.1,477.5,441.6z"/>
		<path class="st4" d="M328.5,606.6c-2.1,0-4-1.3-4.7-3.3c-0.7-2.1,0-4.5,1.9-5.8c18.9-12.9,34.9-45.7,50.5-77.4
			c21.9-44.6,44.5-90.7,78.8-90.7c8.1,0,16.6,2.7,25.1,7.9c15.6,9.5,21.5,25.9,16.7,46.2c-12.2,50.8-89.8,116.9-167.9,123
			C328.7,606.6,328.6,606.6,328.5,606.6z M454.9,439.5c-28.1,0-49.3,43.3-69.9,85.1c-13.4,27.2-26.1,53.3-41.3,70.1
			c68.5-12.4,132.7-69.2,143.3-113.4c3.9-16.2-0.2-28.1-12.2-35.4C467.8,441.5,461.3,439.5,454.9,439.5z"/>
	</g>
	<g>
		<path class="st4" d="M365.7,299.9c0,12.4-11.9,36.6-37.3,36.6c-25.3,0-37.2-24.2-37.2-36.6c20.6,3.1,37.2,2.4,37.2,2.4
			S345.1,303,365.7,299.9z"/>
		<path class="st4" d="M328.5,341.4C328.5,341.4,328.5,341.4,328.5,341.4L328.5,341.4c-16.2,0-26.4-8.4-32.1-15.5
			c-6.2-7.7-10.2-17.9-10.2-26c0-1.4,0.6-2.8,1.7-3.8c1.1-0.9,2.6-1.4,4-1.1c20,3,36.1,2.4,36.3,2.4c0.5,0,1.9,0.1,4.4,0.1
			c6,0,18.2-0.3,32.3-2.4c1.4-0.2,2.9,0.2,4,1.1c1.1,1,1.7,2.3,1.7,3.8C370.7,314.8,356.6,341.4,328.5,341.4z M297.1,305.7
			c1.1,4.3,3.5,9.4,7.2,14c4.3,5.4,12.1,11.8,24.2,11.8h0.1c18.6,0,28.4-15.3,31.3-25.8c-11.8,1.4-21.8,1.7-27.1,1.7l0,0
			c-2.5,0-4.1-0.1-4.4-0.1C328.2,307.3,314.5,307.8,297.1,305.7z"/>
	</g>
	<g>
		<path class="st4" d="M384.5,106.6c17.9-29.8,68.2-28.8,92.9-28.8c-47.6,36.2-11.4,128.7-49.7,181.5c-14.9,20.5-38.1,37-62.1,40.6
			c-20.6,3.1-37.3,2.4-37.3,2.4s-16.6,0.7-37.2-2.4c-24-3.6-41.3-12.7-56.2-33.2c-38.3-52.8-8-152.7-55.6-188.9
			c24.7,0,75-1,92.9,28.8c0.8,1.3,1.6,2.8,2.3,4.3c-4.1-52.8,53.8-74.5,53.8-74.5s57.9,21.7,53.8,74.5
			C382.9,109.4,383.7,108,384.5,106.6z"/>
		<path class="st4" d="M332.7,307.4c-2.5,0-4.1-0.1-4.4-0.1c-0.1,0.1-17.3,0.6-37.8-2.5c-26.6-4-44.4-14.5-59.5-35.2
			c-18.6-25.7-21.7-61.3-24.6-95.7c-3.2-38.1-6.3-74.1-30-92.1l-11.8-8.9h19.5c21.5,0,64,0,86,22.8c6.6-44.6,56-63.7,56.5-63.9
			l1.7-0.7l1.7,0.7c0.6,0.2,49.9,19.3,56.5,63.9c21.9-22.8,64.4-22.8,86-22.8h19.5l-11.8,8.9c-23.4,17.8-25,51.5-26.7,87.2
			c-1.6,33.1-3.2,67.3-22,93.3c-16.8,23.1-41.2,39-65.4,42.6C351.8,307,339,307.4,332.7,307.4z M328.3,297.3c0.5,0,1.9,0.1,4.4,0.1
			c6,0,18.2-0.3,32.3-2.4c21.3-3.2,43.8-17.9,58.8-38.6c17.1-23.5,18.6-56.2,20.1-87.9c1.5-33,3-64.5,21.1-85.7
			c-23.7,0.3-62,2.8-76.1,26.4c-0.7,1.2-1.4,2.4-2,3.7L375,139.7l2.3-29.2c3.4-43.5-39.6-64.7-48.8-68.7
			c-9.5,4.1-52.3,24.8-48.8,68.7L282,140l-11.8-27.1c-0.5-1.1-1.1-2.3-1.9-3.6c-14.2-23.7-52.5-26.2-76.2-26.4
			c18.5,21.7,21.4,55.1,24.4,90.2c2.8,33,5.7,67.2,22.7,90.7c13.5,18.6,28.8,27.7,52.9,31.2C312,298,328.1,297.4,328.3,297.3z"/>
	</g>
</g>
</svg>
