<?xml version="1.0" encoding="utf-8"?>
<!-- Generator: Adobe Illustrator 19.1.0, SVG Export Plug-In . SVG Version: 6.00 Build 0)  -->
<svg version="1.1" id="Layer_1" xmlns="http://www.w3.org/2000/svg" xmlns:xlink="http://www.w3.org/1999/xlink" x="0px" y="0px"
	 viewBox="0 0 640 640" style="enable-background:new 0 0 640 640;" xml:space="preserve">
<style type="text/css">
	.st0{fill:#F1EEDF;}
	.st1{fill:#6F4433;}
	.st2{fill:#F89828;}
	.st3{fill:#F25A32;}
	.st4{fill:#746C69;}
	.st5{fill:#D39C70;}
	.st6{fill:#DC9E98;}
	.st7{fill:#FFFFFF;}
</style>
<path class="st4" d="M602.1,177.3c-8.6-6-19.8-7.5-30.4-6c9.9-16.9,18.9-42.1-6.8-42.4c-12.1-0.1-21.8,15-27.9,23.6
	c-11.1,15.5-15.2,34.9-19.3,53.4c-6.5,8.7-21.8,19-26.4,22.8c-16,13.3-32.8,25.8-49.6,38.1c-9.6,7.1-19.6,13.7-28.9,21.2
	c-19.2,15.5-36.8,34.8-58.2,47.6c14.2-30,27.9-60.4,45.1-88.5c19.8-32.4,43.9-61.5,62.1-94.8c23.1-9.6,67.7-22,57.8-53.1
	c-5.9-18.3-27.5-13.2-42.4-3.4c1.3-7.4,1.9-14.9,0.7-22.5c-1.2-8.3-11.5-17.6-20.1-13.4c-10,4.8-11.5,18.5-12.7,28.3
	c-2.9,22.8-0.8,44.9,3.3,67.4c-17.4,30-38.8,57.4-57.5,86.5c-15.9,24.8-28.2,52.1-40.7,79.1c3.1-28.6,1.9-57.7,2.6-86.5
	c0.2-6.1-1.2-64.4-0.5-95.4c0.4-0.7,0.6-1.5,0.5-2.5c-0.1-0.8-0.3-1.5-0.4-2.3c0.1-1.2,0.1-2.3,0.2-3.4c0.4-0.2,0.9-0.5,1.2-0.9
	c12.7-13.8,83.3-46,56.6-74.9c-11.5-12.6-30.2-4.7-42.9,7.7c0-6.5-1-12.8-3.5-18.3c-4.4-9.6-16.1-20-27.3-13.5
	c-9.8,5.7-10.7,20.1-11,30.1c-0.8,24.3,11.9,45.9,15.9,69.4c-4.3,22-0.7,50.2-0.1,67.7c1.6,45.6,5,95.4-4.5,140.7
	c-22.3-60-58.7-113.8-76.1-175.7c13.5-28.7,38.5-70.2,13.3-97.6c-9.9-10.8-26.2-3.1-33.5,6.4c-8.8,11.4-11.5,23.2-10.2,35.4
	c-3.5-3.7-7.4-6.8-12.1-8c-7.7-2-17.5-0.4-20,8.5c-7.3,26.6,38.8,46,51.5,60.2c0.8,0.8,1.5,1.2,2.3,1.4
	c18.1,61.3,54.3,114.9,76,174.7c-37.5-21.6-73.2-47.4-105.3-76.3c-19.7-17.7-43.6-42.8-71.4-46c-4.9-22.4-8.1-79.3-40.4-66.7
	c-17.1,6.7-13.6,37.8-3.1,55.2c-16-0.7-33.8,2.3-30.1,22.6c1.6,9,15.2,11.3,22.1,12.4c20.3,3.1,38.3-8.4,58-10.9
	c0.7-0.1,1.3-0.3,1.8-0.6c25.5,7.7,48.3,34.9,67,51.2c27.7,24.2,58.6,45.9,90.5,64.6c-28.3,3.6-56.7-0.2-85.3-1.1
	c-32.6-1-65-1-96.9-8c-0.1-0.1-0.2-0.2-0.3-0.4c-12.5-16.1-15.4-60.4-45.3-55.4c-9.5,1.6-11.5,14.9-12,22.4
	c-0.7,7.8,4.1,14.7,9.8,20.7c-22.8,0-54.3,9.7-48.5,32.8c4.1,16,27,21.7,40.8,20.1c19.4-2.3,36.5-16.9,49.5-31.1
	c33.8,8,68.3,8.3,102.9,9.1c31.5,0.7,62.6,5,93.6-0.2c-12.2,21.3-39.6,30-60.8,39.2c-30,13-62.3,28-94.5,36.3
	c-0.4-2.1-2-3.9-4.7-3.9c-18.7,0-33.9-14.4-51.8-18.4c-8.6-1.9-24.3-1.8-29.6,7.2c-5.3,9,4.4,19.9,11.6,24.2
	c5.9,3.5,12.4,5.3,19,5.9c-13,10.3-24.9,25.2-15.2,36.4c8.4,9.7,26.9,2.9,35.2-2.7c12.2-8.1,21.1-21.9,27.5-35.3
	c2.8,1.6,5.5-0.1,6.5-2.6c37.6-8.9,74.5-27.3,110-42c22.5-9.3,46.2-20.6,57.4-42.9c1.5,0.2,3-0.2,4.3-1.1c0.8,0,1.7-0.4,2.4-0.9
	c6,40.2,23.7,77.4,37.8,115.4c1.2,3.2,2.4,6.3,3.6,9.5c-29.8-4.8-57.5-11.9-88.4-7.1c-32.6,5.1-62.9,23.2-89.6,41.5
	c-3,2-3.6,6.9,0,8.8c58.5,30.7,139.4,23.2,183.9-28.2c15.6,38.8,33.2,76.4,52.1,114.1c2.9,5.9,11.7,0.7,8.7-5.1
	c-17.9-35.8-35.8-71.5-50.5-108.7c0.3-0.7,0.7-1.3,1-2c35.7-10.1,72.2-16.9,103-38.7c26-18.4,38.5-48.6,50.8-76.8
	c1.6-3.6-1-9.1-5.7-7.5c-59.3,21.1-123.5,53.6-153.7,111.5l-0.5-0.1c-0.7-1.8-1.4-3.7-2.1-5.5c-15.3-42.9-36.8-85.1-41.4-130.8
	c19.5-10,35.9-25.3,52.3-39.9c15.8-14.1,33.5-26,50.5-38.6c18.7-13.8,37.1-27.9,54.7-43.2c2.8-2.5,7.1-5.9,11.1-9.8
	c15.9,4.4,34,2.4,50,0.1c13.6-1.9,33.9-3.4,41.1-17.2C616.5,190.5,609,182,602.1,177.3z M503.8,445.1
	c-21.4,19.5-50.7,27.5-79.1,34.5c17.2-10.3,32.8-23,49.4-34.7c21.6-15.4,43.2-30.5,63-47.9C528.6,414.7,518.9,431.3,503.8,445.1z
	 M526.4,392.9c-16.1,13.8-33.3,26.2-50.7,38.5c-20.2,14.2-39.4,30.9-61.3,42.7C440.7,435.9,483.2,410.8,526.4,392.9z M371.8,490.6
	c-44.2,16.9-92.4,23.1-139.6,22.4c18.4-11,37.7-20,58.8-25.7C318.3,479.9,345,485.5,371.8,490.6z M224.6,522.9
	c50.1,1.6,101.3-4.6,148.5-22.1C333.8,536.1,273.5,542.6,224.6,522.9z"/>
</svg>
