<?xml version="1.0" encoding="utf-8"?>
<!-- Generator: Adobe Illustrator 19.1.0, SVG Export Plug-In . SVG Version: 6.00 Build 0)  -->
<svg version="1.1" id="Layer_1" xmlns="http://www.w3.org/2000/svg" xmlns:xlink="http://www.w3.org/1999/xlink" x="0px" y="0px"
	 viewBox="0 0 640 640" style="enable-background:new 0 0 640 640;" xml:space="preserve">
<style type="text/css">
	.st0{fill:#F1EEDF;}
	.st1{fill:#6F4433;}
	.st2{fill:#F89828;}
	.st3{fill:#F25A32;}
	.st4{fill:#746C69;}
	.st5{fill:#D39C70;}
	.st6{fill:#DC9E98;}
	.st7{fill:#FFFFFF;}
</style>
<g>
	<path class="st4" d="M516.1,540.5c-0.5-0.5-1-0.8-1.5-1c-0.5-4.8-0.8-9.1-1.2-11.6c-3-16.7-6.2-33.4-9-50.1
		c-9.1-53.9-15.8-106.8-30.8-159.5c-21.3-75.3-37.1-186.9-122.8-217.6c-1.9-0.7-3.8-1.2-5.7-1.7c10.5-8.4,17.7-22.3,19-35.1
		c1.6-15.9-15.7-27.1-29.9-20.3c-1.2,0.6-2.4,1.3-3.5,2c-1.3,0.9-2.5,1.8-3.6,2.9c-1.1-1.6-2.7-2.9-4.5-3.9
		c-4.7-2.8-11.1-3.7-16.2-2.9c-28.7,5-31.9,38.5-18.8,60.1c-17.8,5.2-34.6,13.5-47,23.2c-6,4.7-11.4,9.8-16.3,15.2
		c-1.6,0.4-3,1.7-3.1,3.6c-17.9,21.6-28.3,48.3-35.1,76.1c-26.2,107.3-31.2,217.8-36.7,327.7c-1.4-0.3-2.9,0.3-3.8,2
		c-30.3,59.1,129.4,64.4,158.1,65.9c53.1,2.7,105.3-4.4,155.9-20.9C476.6,588.9,542.3,567.8,516.1,540.5z M508.9,548
		c-0.3,0.2-0.6,0.4-0.9,0.7c-7.7,8.7-19.6,11.8-30.8,14.7c0.1-6.2-0.4-12.4-1.3-18.5c10.9,1,21.8,1.7,32.8,1.7
		C508.7,547,508.8,547.5,508.9,548z M424.2,187.2c9,18.7,15.8,38.5,21.6,58.1c12.7,42.9,25.3,87,34.4,130.8
		c9.4,45.2,14.6,91.5,22.4,137c1.5,8.5,2.9,16.9,4.5,25.4c-10.9,0-21.8-0.7-32.6-1.6c-4.5-23.6-13.4-46.9-17.4-70.3
		c-7.6-45.2-11.7-91-19-136.3c-7.2-44.6-16.7-88-29.6-131.3c-0.9-3.2-1.9-6.5-2.9-9.8c6.1-0.6,12.2-1.2,18.3-2
		C424.1,187.3,424.2,187.2,424.2,187.2z M395.2,539.9c9.7,0,19.4,0.1,29.1,0.5c14.4,0.6,28.7,2.2,43,3.7c1.2,6.7,1.9,13.6,1.8,20.5
		c0,0.4,0.1,0.6,0.2,0.9c-17.1,4.9-33.4,12.2-50.7,16.8c-6.8,1.8-13.8,3.3-20.8,4.4C398.3,571.3,397.1,555.7,395.2,539.9z
		 M341.3,552.3c-0.4-3.6-0.7-7.3-1-10.9c15.5-0.7,31-1.2,46.5-1.4c2.1,16.1,3.4,32.2,2.9,48c-15.5,2-31.4,2.7-47.2,2.7
		c0.1-0.2,0.2-0.3,0.3-0.5C346.6,577.9,342.7,564.8,341.3,552.3z M335.2,590.7c-10.8-0.1-21.5-0.4-32-0.8c-1.9-0.1-3.9-0.2-5.8-0.3
		c2-11.5,0.1-24-0.1-35.5c-0.1-3.5-0.1-6.9-0.2-10.4c11.8-0.7,23.6-1.4,35.4-1.9c0,0,0.1,0,0.1,0c2.3,15.3,6.4,33.4,2.3,46.4
		C334.7,589.1,334.8,590,335.2,590.7z M329.7,474c0.5,19.3,0.4,38.5,1.8,57.8c0,0.6,0.1,1.3,0.2,1.9c-11.6,0.5-23.1,1-34.7,1.7
		c-0.2-12.5-0.4-25.1-0.6-37.6c0-2.2-0.1-4.3-0.1-6.5c-0.5-42-0.8-84-0.8-126c0-21.8,0-43.6,0.1-65.3c0.3-35.3,1-70.7,2.7-106
		c7.5,0,14.9-0.1,22.4-0.3c0.9,8.3,1.9,16.7,2.9,25c3.8,32.7,2.8,65,1.7,97.5c-0.4,11.1-0.8,22.2-1,33.4
		c-0.8,41.3,4.3,82.7,5.4,123.9C329.7,473.8,329.7,473.9,329.7,474z M223.1,580.6c0,0.4-0.1,0.7-0.1,1.1c-1.1-0.2-2.1-0.3-3.1-0.5
		c-8.1-1.4-19.9-3-31.1-6.2c-0.3-1.2-1.1-2.3-2.6-2.9c4.8,1.7,3.4-6,3.8-10c0.3-3.2,0.3-6.4,0.2-9.7c11.6-1.2,23.3-2.3,34.9-3.4
		c0.1,5.2,0.2,9.7,0.3,13.5c0,0.1-0.1,0.3-0.1,0.4c-0.6,4.8-1.1,9.6-1.7,14.4C223,578.4,222.8,579.6,223.1,580.6z M225,541
		c-11.7,1.1-23.3,2.2-35,3.4c0-1.7-0.1-3.5-0.1-5.2c0-19.3,1.8-38.9,3.3-58.1c3.2-40.5,1.1-81.4,3.3-121.9
		c2.3-42.4,9.8-84.3,18.7-125.8c2.8-13,5.3-26.1,8.3-39c7.2-0.1,14.4-0.1,21.7-0.1c-9.1,41.5-11.9,85.1-15.3,127.2
		C228.5,337,224.6,475.3,225,541z M225.4,186.3c0.8-3,1.5-6,2.3-9c2.1-7.6,5.3-14.6,9-21.1c5.1,1.2,11.1,1.7,17.3,1.8
		c-2.8,9.4-5,18.9-7.1,28.2C239.8,186.2,232.6,186.2,225.4,186.3z M231,581.9c0.4-0.4,0.8-0.9,0.9-1.6c2.7-9.5,0.8-21.6,1.2-31.4
		c0-0.2,0-0.3,0-0.5c18.7-1.6,37.3-3.1,56.1-4.3c0.8,14.6,3.1,31.3,0.1,45c-19.6-1.2-39-3.3-58.4-6.2
		C230.9,582.6,231,582.3,231,581.9z M288.9,536c-18.6,1.2-37.1,2.7-55.6,4.3c0.3-15.8-0.2-31.5-0.4-47.3c-0.7-44-0.1-88,2.3-131.9
		c0-0.9,0.1-1.9,0.2-2.8c1.1-19.6,2.6-39.2,4.4-58.7c2.2-23.1,4.7-46.2,7.6-69.3c1.4-11.2,3.1-23.5,5.4-36c12.5,0,25.1,0,37.6-0.1
		c-1.6,31.6-2.3,63.3-2.6,95c-0.2,20.2-0.3,40.4-0.3,60.5c0,42,0.2,83.9,0.7,125.9c0,1.9,0.1,3.7,0.1,5.6
		C288.4,499.4,288.6,517.7,288.9,536z M290.7,186.1c-12.1,0.1-24.3,0.1-36.4,0.1c1.9-9.5,4.3-19,7.2-28.2c12.7-0.4,24.9-2,31.2-2.5
		C291.9,165.6,291.3,175.8,290.7,186.1z M316.8,145.3c-0.5,0-1,0.1-1.4,0.1c-2.2,0.2-7.3,0.9-14,1.6c1.1-13.4,2.3-26.7,3.8-40
		c0.3-0.1,0.6-0.1,0.9-0.2c3.9-0.8,7.7-1.3,11.5-1.6C316.4,118.6,316.3,131.9,316.8,145.3z M317.2,153.4c0.6,10.8,1.6,21.5,2.7,32.3
		c-7,0.1-14.1,0.2-21.1,0.3c0.6-10.4,1.2-20.8,2-31.3C306.2,154.3,311.7,153.9,317.2,153.4z M325.2,152.7c9.1-0.9,18.2-1.9,27.4-3
		c3.3,11.5,6,23.1,8.2,34.8c-10.9,0.5-21.8,0.9-32.7,1.1C326.9,174.6,325.9,163.7,325.2,152.7z M332.3,357.6
		c-0.2-18.2,0.6-36.3,1.3-54.4c1-25.7,1.7-51.4-1.1-77.4c-1.2-10.7-2.4-21.5-3.6-32.2c11.1-0.2,22.2-0.6,33.3-1.2
		c5,30.1,6.8,60.9,7.6,91.7c0.6,21.9,0.6,43.9,0.8,65.6c0.2,22.9,1.2,45.7,2.7,68.5c1.2,17.8,2.6,35.5,4.3,53.3
		c1.8,19.7,5.3,39.9,8.2,60.2c-15.2,0.3-30.4,1-45.4,1.6c-0.2,0-0.4,0-0.7,0c-1.1-14.5-1.6-29.1-1.6-43.7c0-8.8-0.3-17.7-0.6-26.5
		C336,427.9,332.7,392.8,332.3,357.6z M385,463.9c-1.8-19.5-3.2-39-4.2-58.4c-1.3-23.2-2-46.3-2.2-69.6c-0.1-16.1-0.2-32.2-0.6-48.3
		c-0.8-32.1-2.6-64-7.8-95.4c9.3-0.5,18.5-1.2,27.7-2c2.5,8.8,4.9,17.3,7.1,25.3c11,38.6,19,77.4,25.4,117
		c6.5,40.3,11.2,80.7,16.8,121.1c2.5,17.9,5.5,35.5,10.4,52.9c2.7,9.8,5.8,19.6,8.1,29.5c-11.4-1.1-22.8-2.3-34.2-3.3
		c-12.4-1-24.9-1.2-37.3-1.2C391,508.9,387,486.1,385,463.9z M396,143c9.7,11.1,17.7,23.5,24.5,36.6c-5.7,0.7-11.5,1.3-17.2,1.9
		c-3.9-12.5-8.2-25.3-13.7-37.4C391.7,143.7,393.9,143.4,396,143z M383.9,130.7c1.9,1.7,3.7,3.5,5.5,5.3c-1.1,0.2-2.3,0.4-3.4,0.6
		c-1.3-2.6-2.7-5.1-4.1-7.6C382.6,129.5,383.2,130.1,383.9,130.7z M395.5,182.2c-8.9,0.8-17.8,1.4-26.8,1.9
		c-2.2-12-4.9-23.8-8.3-35.6c7.1-1,14.2-2,21.3-3.2C387.3,157.1,391.7,169.7,395.5,182.2z M363.8,116.1c0.1,0.7,0.3,1.4,0.9,2.1
		c5,5.9,9.4,12.5,13.3,19.7c-6.6,1-13.3,2-19.9,2.8c-3.4-10.9-7.3-21.6-11.9-32.2C352.2,110.3,358.1,112.9,363.8,116.1z
		 M350.1,141.7c-8.4,1-16.8,1.9-25.2,2.8c-0.5-13.1-0.4-26.2,0.8-39.4c3.6,0.1,7.2,0.5,10.7,1.1
		C341.8,117.8,346.3,129.7,350.1,141.7z M290.3,62.3c2.5-7.6,8.7-10.8,15.8-12.5c3.1-0.7,6.2-0.7,9.3-0.1c8.9,1.7,2.9,17.5-4,8.7
		c-3.2-4.1-8.9,1.7-5.7,5.7c4.2,5.4,10.7,6,15.7,3.4c0.8,4.3,2.7,8.6,7,9.8c10.4,3,19.3-10.3,13.1-18.9c-3-4.2-10-0.2-7,4.1
		c1.7,2.4,1,4.3-0.9,6.3c-4.9,5.1-4.1-10.1-2.9-12.3c5.3-10.4,21.8-8.3,24.9,2.3c3.8,13.2-10.1,31.9-21.2,37.5
		c-0.3,0.2-0.5,0.4-0.8,0.6c-12.1-1.3-25.1-0.2-37.8,2.7C288.1,89.1,286.3,74.6,290.3,62.3z M284.6,112.2c4.1-1.2,8.2-2.4,12.3-3.4
		c-1.5,13-2.6,26-3.7,39c-8.9,0.9-19.3,1.8-29,2.1c5.1-14,11.6-27,20.3-37.5C284.5,112.4,284.5,112.3,284.6,112.2z M262.5,120.8
		c3-1.4,6-2.8,9.1-4c-6.5,10.2-11.2,21.6-15.1,33.3c-5.7,0-11-0.3-15.3-1c6-9,13.1-17.4,20.4-26
		C262.2,122.4,262.4,121.6,262.5,120.8z M242,133.9c0.1-0.1,0.3-0.2,0.4-0.3c-3.3,4.2-6.5,8.6-9.5,13.2c-1-0.5-1.8-1-2.4-1.6
		C234,141.3,237.9,137.5,242,133.9z M225.5,151.3c1,0.8,2.1,1.5,3.3,2.1c-0.3,0.5-0.7,1-1,1.5c-5.4,9.5-8.7,20.4-11.2,31.4
		c-3.7,0-7.4,0.1-11.1,0.1C210.6,174,217,162.1,225.5,151.3z M188.5,244.9c3.7-17.1,7.8-34.1,13.7-50.3c0,0,0,0,0,0
		c4.2-0.1,8.3-0.1,12.5-0.2c-1.1,5.3-2.1,10.5-3.2,15.5c-8.8,41.9-17.1,84-21.4,126.6c-4.4,43-2.8,86.3-4.3,129.4
		c-0.9,26.4-2.4,52.8-3.8,79.2c-8.2,0.9-16.4,1.7-24.6,2.7C162.5,446.4,167.2,344.6,188.5,244.9z M181.6,553.4
		c-0.3,6.3-0.6,12.7-1,19c-9.6-3.6-17.8-8.8-21.8-16.3c0.1-0.1,0.2-0.2,0.3-0.2C166.7,555,174.1,554.2,181.6,553.4z M424.1,596.3
		c-40.4,10.4-81.9,13-123.3,10.9c-21.9-1.1-161.3-8.3-149.9-49.2c7.2,16.6,29.6,22.6,45.5,26.7c27.4,7.1,56.6,9.9,84.7,12
		c43.8,3.4,89.6,4,132.8-4.9c21.8-4.5,41.9-14.1,63.2-20.1c11-3.1,22.9-6,32-13.1c1.4-2.3,2.8-4.6,4.2-6.9
		C515.5,571.6,436.1,593.2,424.1,596.3z"/>
	<g>
		<path class="st4" d="M324.3,349.7c0.2-11.2,0.6-22.3,1-33.4c-8.2,14.9-14.7,32.7-18.9,48.2c-0.7-8-1.5-15.9-1.9-23.8
			c-0.8-14.1-3-27.8-8.9-40.7c-0.2,21.8-0.2,43.6-0.1,65.3c0.1,42,0.3,84,0.8,126c0,2.2,0.1,4.3,0.1,6.5c3.1,5.7,6.5,11.1,10.5,15.9
			c0.5,0.6,1,0.9,1.5,1.1c1.5,2.1,4.8,2.8,6.2-0.1c4.4-9.2,6.5-18.8,9.3-28.6c1.3-4.4,3.3-8.5,5.8-12.5
			C328.6,432.4,323.5,390.9,324.3,349.7z"/>
		<path class="st4" d="M287.4,349.7c0-20.2,0.1-40.4,0.3-60.5c-13.4-11.8-34.3-7.9-45.9,7.3c-0.8,1-1.3,2.1-2,3.1
			c-1.8,19.6-3.3,39.1-4.4,58.7c3.7,15.9,9.6,31.3,14.2,43.3c8.1,20.9,18.7,40.9,29.3,60.5c3.3,6.1,6.2,12.6,9.3,19.1
			c0-1.9-0.1-3.7-0.1-5.6C287.6,433.6,287.4,391.6,287.4,349.7z"/>
		<path class="st4" d="M369.8,284.2c-13.7-3.4-26,5.2-36.2,19c-0.7,18.1-1.5,36.2-1.3,54.4c0.4,35.2,3.6,70.4,5,105.6
			c5.5-6.6,11.6-12.7,16.8-18.7c7-8.1,13.4-17,19.1-26.2c-1.5-22.8-2.5-45.5-2.7-68.5C370.4,328,370.4,306.1,369.8,284.2z"/>
		<path class="st4" d="M377.9,287.5c0.4,16.1,0.5,32.2,0.6,48.3c0.2,23.3,0.9,46.5,2.2,69.6c3.9-7.2,7.4-14.6,10.4-22.1
			C402.8,354.4,411,306.3,377.9,287.5z"/>
	</g>
</g>
</svg>
