<?xml version="1.0" encoding="utf-8"?>
<!-- Generator: Adobe Illustrator 19.1.0, SVG Export Plug-In . SVG Version: 6.00 Build 0)  -->
<svg version="1.1" id="Layer_1" xmlns="http://www.w3.org/2000/svg" xmlns:xlink="http://www.w3.org/1999/xlink" x="0px" y="0px"
	 viewBox="0 0 640 640" style="enable-background:new 0 0 640 640;" xml:space="preserve">
<style type="text/css">
	.st0{fill:#F1EEDF;}
	.st1{fill:#6F4433;}
	.st2{fill:#F89828;}
	.st3{fill:#F25A32;}
	.st4{fill:#746C69;}
	.st5{fill:#D39C70;}
	.st6{fill:#DC9E98;}
	.st7{fill:#FFFFFF;}
</style>
<g>
	<g>
		<polygon class="st4" points="163.9,220.4 228.7,156.5 232.9,160.6 171.9,228.2 		"/>
		<path class="st4" d="M246.2,158.6c0,8.5-6.9,15.4-15.4,15.4c-8.5,0-15.4-6.9-15.4-15.4c0-8.5,6.9-15.4,15.4-15.4
			C239.3,143.2,246.2,150.1,246.2,158.6z"/>
	</g>
	<g>
		<polygon class="st4" points="108,223.5 47,156 51.2,151.9 116,215.8 		"/>
		<path class="st4" d="M33.7,153.9c0,8.5,6.9,15.4,15.4,15.4c8.5,0,15.4-6.9,15.4-15.4c0-8.5-6.9-15.4-15.4-15.4
			C40.6,138.6,33.7,145.4,33.7,153.9z"/>
	</g>
</g>
<g>
	<path class="st4" d="M313.4,428.7C214.7,397.9,288.8,163,139.3,184C33.6,198.8,24.6,409.1,163,474.8c84.8,40.3,197.8,21.7,246,2.8
		C457.3,458.7,313.4,428.7,313.4,428.7z"/>
	<path class="st4" d="M282.6,501.5L282.6,501.5c-46.3,0-87-8.1-120.8-24.2c-85.6-40.7-113.4-132.5-103-200.7
		c8.1-53.1,38.8-89.6,80-95.4c6.4-0.9,12.5-1.3,18.3-1.3c70.6,0,83.2,65.7,95.5,129.3c10.3,53.4,20,103.9,61.5,116.9
		c17.4,3.6,105.9,23,107.5,42.2c0.6,7.1-8.6,10.7-11.6,11.9C383.7,490.5,336.4,501.5,282.6,501.5z M157.2,185.5
		c-5.5,0-11.4,0.4-17.6,1.3c-39.3,5.5-67.4,39.4-75.3,90.7c-10.1,66.2,16.8,155.3,99.9,194.8c33.1,15.7,72.9,23.7,118.4,23.7
		c53,0,100.7-11.3,125.4-20.9c5.3-2.1,8.3-4.4,8.1-6.2c-0.9-11-61-28.4-103.4-37.3c-45-14.1-55.5-68.5-65.6-121.2
		C234.8,246.1,223.1,185.5,157.2,185.5z"/>
</g>
<g>
	<path class="st4" d="M613.2,327.1c0,96.8-78.4,175.2-175.2,175.2c-96.8,0-175.2-78.4-175.2-175.2c0-96.8,78.5-175.2,175.2-175.2
		C534.8,151.8,613.2,230.3,613.2,327.1z"/>
	<path class="st4" d="M438,507.6c-99.6,0-180.6-81-180.6-180.6c0-99.6,81-180.6,180.6-180.6c99.6,0,180.6,81,180.6,180.6
		C618.5,426.6,537.5,507.6,438,507.6z M438,157.2c-93.7,0-169.9,76.2-169.9,169.9c0,93.7,76.2,169.9,169.9,169.9
		c93.7,0,169.9-76.2,169.9-169.9C607.9,233.4,531.6,157.2,438,157.2z"/>
</g>
<path class="st7" d="M441.5,308.1c6.1,1.3,11.4,7.1,12.1,13.7c0.7,6.8-2.5,12.9-7.5,16.9c-5,4-12.1,5.4-18.3,3.6
	c-6.1-1.6-11.4-5.5-14.9-10.8c-3.5-5.2-5-11.8-4-18.1c0.9-6,3.7-11.9,7.7-16.5c8-9.4,21.7-13.7,33.8-10.2
	c11.6,2.9,22,11.3,27.3,22.2c5.6,10.8,5.7,24.6,1.3,35.5c-4.1,11.2-12.2,20.9-22.4,27.2c-10.2,6.3-22.6,9.2-34.6,7.8
	c-23.8-2.8-44.7-18.8-54.4-40.6c-4.9-10.8-7-22.9-6-34.8c0.5-5.9,1.9-11.9,3.6-17.2c1.9-5.8,4.1-10.9,7-16.1
	c11.4-20.4,31.1-35.9,53.6-42.3c11.3-3.2,23.2-4.2,34.9-2.9c11.8,1.4,22.7,4.8,33.2,9.7c20.8,9.7,38.6,26,50.2,45.9
	c11.7,19.8,17.4,43.4,15.7,66.6c-0.4,5.8-1.2,11.5-2.5,17.2l-0.5,2.1l-0.5,2.1l-1.1,4c-0.8,2.9-1.7,5.4-2.7,8.1
	c-3.8,10.7-9.2,20.8-15.6,30c-12.8,18.6-30.4,33.5-49.8,44.2c-19.5,10.6-41.2,16.8-63.1,17.6c-10.9,0.4-21.9-0.3-32.6-2.4
	c-10.7-2.1-20.9-5.4-30.9-9.3c-39.8-15.7-73.4-46-91.6-83.8c-0.4-0.8-0.1-1.8,0.7-2.2c0.8-0.4,1.7-0.1,2.2,0.7
	c20.1,36,54.2,62.6,92.5,75c19.1,6.4,39,9.4,58.6,7.2c19.5-2.1,38.4-8.6,54.6-19.1c32.6-20.9,53.3-57.2,57.7-93.4
	c1.7-18.2-2.3-36.9-11.4-52.9c-9-16.1-22.9-29.4-39.5-37.6c-8.2-4.1-17.4-7.1-26.1-8.3c-8.9-1.2-18-0.6-26.7,1.7
	c-17.5,4.6-33,16.3-42.2,32c-2.3,3.9-4.3,8.2-5.7,12.2c-1.6,4.6-2.7,8.7-3.2,13.1c-1,8.7,0.2,17.7,3.6,25.9
	c3.4,8.2,8.9,15.6,15.9,21.2c6.9,5.5,15.7,9.5,24.1,10.7c8.6,1.2,17.5-0.5,25.1-4.9c7.6-4.3,13.7-11.2,17.1-19.4
	c3.6-8.2,3.6-17,0.1-24.9c-3.5-7.8-10.4-14.1-18.8-16.6c-7.9-2.6-17.1-0.2-22.9,6c-2.9,3.1-4.9,6.9-5.8,11.1
	c-0.8,3.9,0,8.2,2.1,11.7c2.1,3.5,5.5,6.3,9.5,7.5c3.8,1.3,8,0.6,11.2-1.7c3.2-2.2,5.5-6.4,5.2-10c-0.3-3.8-2.8-7.3-6.9-8.4
	c-1.7-0.5-2.6-2.2-2.2-3.8c0.4-1.6,2.1-2.6,3.7-2.2L441.5,308.1z"/>
<path class="st7" d="M176.1,262.3c0,10-3.4,18.2-7.5,18.2c-4.1,0-7.5-8.1-7.5-18.2c0-10,3.3-18.2,7.5-18.2
	C172.7,244.1,176.1,252.2,176.1,262.3z"/>
<path class="st7" d="M130.4,266.5c0,7.7-3.3,14-7.4,14c-4.1,0-7.5-6.3-7.5-14c0-7.7,3.3-14,7.5-14
	C127.1,252.5,130.4,258.8,130.4,266.5z"/>
<path class="st7" d="M158.8,298.6c0,3.1-8.8,5.6-19.6,5.6s-19.6-2.5-19.6-5.6s8.8-5.6,19.6-5.6S158.8,295.5,158.8,298.6z"/>
</svg>
