<?xml version="1.0" encoding="utf-8"?>
<!-- Generator: Adobe Illustrator 19.1.0, SVG Export Plug-In . SVG Version: 6.00 Build 0)  -->
<svg version="1.1" id="Layer_1" xmlns="http://www.w3.org/2000/svg" xmlns:xlink="http://www.w3.org/1999/xlink" x="0px" y="0px"
	 viewBox="0 0 640 640" style="enable-background:new 0 0 640 640;" xml:space="preserve">
<style type="text/css">
	.st0{fill:#F1EEDF;}
	.st1{fill:#6F4433;}
	.st2{fill:#F89828;}
	.st3{fill:#F25A32;}
	.st4{fill:#746C69;}
	.st5{fill:#D39C70;}
	.st6{fill:#DC9E98;}
	.st7{fill:#FFFFFF;}
</style>
<g>
	<path class="st4" d="M351.3,357.5c0.4-0.1,0.8-0.1,1.2-0.1c1.7-0.2,3.5-0.7,5.5-1.3c16.5-5.3,28.8-21.3,35.9-37.8
		c-0.6-0.7-1.2-1.6-1.8-2.4c-7.1-10.1-3-29.4-4.7-41.5c-0.5-3.4-4.9-4.4-7.5-3c-7.1,3.7-12.7,9.1-18.6,14.6
		c-4.6,4.4-9.5,8.3-14.8,11.8C341,316.5,326.2,359.9,351.3,357.5z"/>
	<path class="st4" d="M404.4,324.5c-2.3,17-1.9,36.4,18,34.3c16.2-1.8,30-14.5,37.8-29.4c-12.7-4-15.8-33.3-16-42.7
		c-0.1-6.4-8.9-7.3-10.9-1.5C430.4,293.8,418.7,324.8,404.4,324.5z"/>
	<path class="st4" d="M494.9,354.4c1.5-2.1,4.2-1.8,5.9-0.3c5-0.9,10-3.5,14-7.9c9.3-10.1,13-23,14.4-36.2
		c-14.2,7.9-23.2-18.4-26.4-27.1c-1.8-4.8-10.6-6.4-11.5,0c-2,14.5-4.5,31.6-16.3,41.6c0.1,4.9,0.5,9.8,1.7,14.4
		C479.4,348.5,486.8,353.7,494.9,354.4z"/>
	<path class="st4" d="M383.8,414.8c26.2-0.9,35.1-25.7,38.1-47.9c-3.4,0.1-6.8-0.2-10.2-1c-14.3-3.4-17.5-16.2-17.1-30.1
		c-9.2,14.8-22.3,27.5-37.9,28.9C354,383.2,359.4,415.7,383.8,414.8z"/>
	<path class="st4" d="M462,404.6c14.7-10.1,21.6-26,28.8-41.6c-15-1.8-20.9-13.9-23.2-28.4c-8,14.7-21.3,27.2-36.7,31.1
		C430.8,381.6,436.7,421.9,462,404.6z"/>
	<path class="st4" d="M501.5,362.7c-4,17.1-11.5,34.5-4.7,51.9c1.7,4.4,3.9,8.8,6.5,13c9.6-20.2,18.4-41.1,25-62.5
		c2.9-9.4,6.8-22.3,5-33.3C528.3,347.2,519,360,501.5,362.7C501.6,362.7,501.5,362.7,501.5,362.7z"/>
	<path class="st4" d="M301.5,342.9c-9,34.8,24.8,45.8,44.2,21c-0.3-0.1-0.6-0.1-0.9-0.2c-19-5-19.5-21.7-15.6-38.9
		C321.5,335,312.1,343,301.5,342.9z"/>
	<path class="st4" d="M255.8,355.6c15.2,3.4,29.3-0.9,36.7-14.7c-0.6-0.2-1.1-0.5-1.7-0.7c-16.6-8.7-17.7-27-12.7-43.6
		c-0.6,0.4-1.1,0.7-1.7,1.1c-12.8,8.2-25.8,13.8-39.6,17.5C233.4,332.7,234.7,350.9,255.8,355.6z"/>
	<path class="st4" d="M384.6,451.6c7.1,1.1,14.8-1.1,21.1-4.4c14.6-7.6,27-18.4,33.6-33.7c-7.7-5-12.1-13.3-14.5-22.6
		c-7.2,19-20.7,34.1-43.9,32.2C378.3,431.1,372.1,449.6,384.6,451.6z"/>
	<path class="st4" d="M323.8,387.2c-3.2,9.8-7.8,24.2-1,33.7c12.6,17.8,36.1,15,48.6,0.4c-17-6.6-23.7-27.5-24-46
		c-7.2,6.6-15.4,10.1-23.3,10.7C323.9,386.3,323.9,386.7,323.8,387.2z"/>
	<path class="st4" d="M460,476.4c1.1,0.9,2.2,1.7,3.4,2.4c14-11.9,26.1-25.9,35.2-42.2c-11.7-17.2-13.2-31.7-11.2-47.4
		c-9.7,16.9-23.1,32.6-40.2,28C444.9,437.1,442.2,462.5,460,476.4z"/>
	<path class="st4" d="M210.1,320.2c-3.8,0.4-7.6,0.8-11.4,1.2c-10.5,7.3-21.3,19.6-8.6,30.3c5.9,5,13.4,7.5,21.1,7.9
		c9.5,0.4,18.5-0.4,27.4-3.7c-11.5-10.2-13.2-23.9-11-38.4C221.9,318.6,216.1,319.5,210.1,320.2z"/>
	<path class="st4" d="M388,460.7c-16-0.5-19.9-12.7-18.6-26c-9,6.4-20,9.4-30.9,6.9C328.8,481.4,365.6,484.4,388,460.7z"/>
	<path class="st4" d="M329.7,438.1c-0.5-0.3-1.1-0.6-1.6-0.9c-12.2-7.4-16.7-18-16.8-29.8c-14.3,17-36.1,29-57.2,17.4
		c-1.5-0.8-2.9-1.7-4.3-2.7C233.6,463.4,310.2,468.6,329.7,438.1z"/>
	<path class="st4" d="M398.8,461c-3.6,15.4,2.5,35.4,14.1,48.5c15.5-6.7,30.2-15,43.4-25.1c-16.1-13.5-19.8-31.5-19.2-50.8
		c-9.8,12.2-23.8,22.3-38.4,25.7C398.9,460,398.9,460.5,398.8,461z"/>
	<path class="st4" d="M193.9,368.2c-24.5,9.8-0.4,36.5,13.4,41.2c10.9,3.7,22.1,6.2,33.6,5c-11.6-12.9-15.4-31.1-8.7-47.5
		c-11.5,2.7-24.7,2.7-35.6-1.5C196.1,366.6,195.3,367.6,193.9,368.2z"/>
	<path class="st4" d="M252.8,457.4c-10.8-7.3-16.8-18.8-12.6-34.2c-9.5,0.7-20.9-0.2-31.4-3C184.4,445.6,230,470.5,252.8,457.4z"/>
	<path class="st4" d="M374.6,522.3c3.9-0.9,7.8-1.9,11.7-3c6.1-1.8,12.2-3.9,18.1-6.2c-9.2-11.5-14.9-26.6-15.4-40.8
		c-6.7,6.1-14.7,10.9-23.2,13C365.8,499.6,368,513.1,374.6,522.3z"/>
	<path class="st4" d="M357.8,498.8c-6.1,10.6-14.1,21.1-24.1,26.9c10.4,0.5,21,0,31.7-1.7C361.4,516.9,358.9,508.4,357.8,498.8z"/>
	<path class="st4" d="M280.9,466.5c0.7,9.3-2.1,21,0.7,29.9c4.6,14.6,25.1,29.1,41.1,23.9c16.1-5.2,24.9-19.5,31.8-34.1
		c-3.8-0.2-7.7-1-11.5-2.6c-12.8-5.3-16-17.7-15.3-30.1c-12.3,10-30.3,14.2-46.9,12.9C280.9,466.4,280.9,466.4,280.9,466.5z"/>
	<path class="st4" d="M181.4,354.8c-4.4-5.4-5.6-11-4.7-16.5c-16.8,3.9-43.7,6.4-43.5,27.8c0.2,22.4,25.8,25.2,44,27.1
		c-3.3-12.2-0.2-25.6,11.2-32C185.8,359.4,183.4,357.3,181.4,354.8z"/>
	<path class="st4" d="M275.1,504.6c-6-11-2.2-26.3-3-38.2c0-0.5,0.1-0.9,0.2-1.3c-4.4-0.9-8.6-2.2-12.5-3.9c0,1.3-0.6,2.6-2,3.5
		c-30.5,18.4-83.5-15.4-57.9-47.7c-8-3.4-14.7-8.1-18.7-14.6c0,0,0-0.1,0-0.1c-10.4-1.1-24.7-2.5-36.4-7.2
		c35.8,52,83.5,99,138.2,119.6C280,511.9,277.3,508.6,275.1,504.6z"/>
	<path class="st4" d="M178.3,328.8c0.7-0.2,1.4-0.2,2-0.1c1.3-2.3,2.9-4.5,4.8-6.6c-11.9,0.3-23.6-0.7-35.8-4.4
		c-7.9-2.4-16-4.9-23.2-9.1c-12.6-3.2-24-9.3-31.8-18.6c-1.6,1.6-2.5,3.8-1.6,6.2c3.4,9.2,7.4,18.7,11.9,28.4
		c5.9,12.8,12.7,25.8,20.2,38.9C128,337.3,156.3,335.2,178.3,328.8z"/>
	<path class="st4" d="M245,361.7c-11.5,16.2-10.1,42.5,9.2,53.2c25.5,14.1,50.7-6,60.7-29.5c-12.7-2.5-22.9-12.8-23.8-29
		c-11.6,9.9-28.8,13.2-43.3,5.7c-0.9-0.4-1.6-0.9-2.4-1.4C245.4,361.1,245.3,361.4,245,361.7z"/>
	<path class="st4" d="M285.5,303.3c-1.9,10.5-2,38.4,20.3,29.2c12.7-5.2,21-17.2,27.4-29.6c-0.3,0-0.5,0.1-0.8,0
		c-10.1-0.7-9.4-16.7-8-26.1c0.6-1.9,1.1-3.8,1.4-5.8c0.6-3.7-4.7-5.3-5.7-1.6c-0.6,2.2-1.5,4.2-2.4,6.1c-0.5,0-1.1,0.1-1.7,0.4
		c-8.9,3.6-17.2,8.1-25.3,13C288.3,293.4,286.4,298.2,285.5,303.3z"/>
	<path class="st4" d="M536.3,248.5c-7-49-11.4-102.3-27.7-149.3c8.9,0.6,18.9-3,27.7-6.7c-1.5-4.2-3.4-8.3-5.7-12.3
		c-2.9,1.3-5.9,2.6-8.8,3.8c-4.2,1.6-8.6,2.6-12.9,3.6c0.4-3.1,0.6-6.3,1-9.2c1-6.7,1.9-13.6,1-20.4c-2.2-1.5-4.5-2.9-6.9-4
		c-1.7,8-3.6,16-5.6,23.9c-0.7,2.8-1.8,6.3-2.4,9.8c-59.5,24.4-98.4,86.8-137.7,135.6c-32.2,40-71,70.8-120.4,86.9
		c-26.4,8.6-54.4,10.6-81.6,5.3c-14.5-2.8-27.9-9-40.5-16.5c-8.6-5.1-15.3-12.1-25.2-14.5c-1.3-0.3-2.4-0.2-3.4,0.3
		c-1.8-0.1-3.7,1.4-3,3.4c-0.8,2.4-0.2,5.1,2.3,6.3c14.5,39.5,29,75.8,53.2,111.1c23.9,34.8,53.9,65.3,88.9,89
		c4.3,2.9,8.9,5.6,13.4,8.1c0.4,21.7-2.2,36.3-13.5,55.7c-10.5,18-24.6,27.4-39.4,40.7c-3.3,3-0.8,9.5,3.8,9.1
		c27.2-2.4,74.1-70.4,59.4-100.3c8,3.7,16.2,6.8,24.6,9.4c-2.5,20.9-7.7,38.2-18.7,56.7c-10.4,17.4-26.3,28.6-38.3,44.2
		c-3.2,4.1,2.7,7.9,6.3,6.3c34.3-15,62.9-66.5,59.6-104.7c41.9,10.8,87.8,8.5,128.3-4c60.4-18.6,105.4-63.8,119.7-125.5
		C544.3,344.3,543,295.3,536.3,248.5z M524.7,356.1c-7.1,71.6-46.2,123.4-114.8,146.1c-57,18.9-123.6,12.9-174.6-18.9
		c-35.9-22.3-65-55.3-89-89.6c-21-30.1-34.1-63.5-50.7-95.6c6.9,3.5,13,9.1,19.5,13c10,5.9,20.9,9.9,32,13.2
		c21.9,6.5,45.3,5.7,67.7,2.3c47.2-7.1,92.1-33.7,125.3-67.2c52.4-52.7,87-127.2,152.8-161.4c0.1,0.7,0.2,1.3,0.4,2
		c14,38.5,16.2,79.6,23.7,119.5C525.5,264.7,529.3,310.4,524.7,356.1z"/>
	<path class="st4" d="M478.1,157.7c-1-7.9-12.5-8.4-12.7,0c-0.1,6.2,0.6,18.3-5.6,22.2c-2.2,1.4-7.3-6.1-8-7.3
		c-2.8-4.6-4.1-10.2-6.6-15c-1.2-2.4-4.4-1-4.6,1.2c-0.6,7.4-0.8,14.9,3.3,21.5c3.6,5.7,9.9,11.9,17.2,11.1
		C474.9,189.7,479.4,168.9,478.1,157.7z"/>
	<g>
		<path class="st4" d="M335.6,217.7c-22.3-17.3-41.8-38.4-60.7-59.3c-34.4-37.9-62.7-81-86.7-126.2c-7,52.1,14.6,109.6,51.6,152.6
			c5.9,3.8,12,7.1,17.1,10c19.5,10.9,39.8,20.4,60.5,28.7c4.3,1.7,30.6,12.5,54.5,20.6C359.9,235.3,347.5,226.9,335.6,217.7z"/>
		<path class="st4" d="M286.7,158.2c20.8,21.9,41,43.6,65.8,61c6.5,4.6,13.1,9.2,19.5,13.8C331.5,151.1,267.1,82.8,195.2,26.6
			C220.1,73.9,249.9,119.4,286.7,158.2z"/>
		<path class="st4" d="M387,244.3c0.9,0.7,1.8,1.5,2.7,2.2c0.1-0.2,0.2-0.4,0.2-0.6c2.8-48.1-19.7-104.1-50.1-140.8
			c-35-42.4-84.3-57.8-132.3-80C282.1,84.7,347.7,157.1,387,244.3z"/>
		<path class="st4" d="M115,201.4c0.5,1.2,1.4,2.2,2.6,3c60.2,37.7,141.5,71.9,214,54.6C260.2,235.3,190.4,206.4,115,201.4z"/>
		<path class="st4" d="M345.3,254.3c2.1-1.5,4.2-2.9,6.3-4.2c0.1-0.2,0.2-0.4,0.2-0.5c0.2,0,0.4,0,0.6,0.1c1.1-0.7,2.2-1.4,3.4-2
			c0.2-0.1,0.4-0.1,0.7-0.2c-12.5-4.1-24.9-8.7-37.1-13.6c-25.3-10.1-50.7-21.1-73.9-35.4c-1.9-1.2-4-2.5-6-3.7
			c-40-9.2-81-11.9-120.4-2.8c-0.8,0.2-1.4,0.5-2,0.9C196.6,198.4,269.9,230.1,345.3,254.3z"/>
	</g>
</g>
</svg>
