<?xml version="1.0" encoding="utf-8"?>
<!-- Generator: Adobe Illustrator 19.1.0, SVG Export Plug-In . SVG Version: 6.00 Build 0)  -->
<svg version="1.1" id="Layer_1" xmlns="http://www.w3.org/2000/svg" xmlns:xlink="http://www.w3.org/1999/xlink" x="0px" y="0px"
	 viewBox="0 0 640 640" style="enable-background:new 0 0 640 640;" xml:space="preserve">
<style type="text/css">
	.st0{fill:#F1EEDF;}
	.st1{fill:#6F4433;}
	.st2{fill:#F89828;}
	.st3{fill:#F25A32;}
	.st4{fill:#746C69;}
	.st5{fill:#D39C70;}
	.st6{fill:#DC9E98;}
	.st7{fill:#FFFFFF;}
</style>
<g>
	<path class="st4" d="M413.1,517.5c-43.7,3.1-87.9-13.5-131.5-17c-16-1.3-32.1-2.3-48.1-3.5c27.6,27.4,61,49.9,94.1,67.8
		c8.2,1,16.4,2.1,24.6,3.1c20.7,2.7,75.3,22,103.9,16.7C440,563.9,425.8,541,413.1,517.5z"/>
	<path class="st4" d="M294.1,403.8c-35.7-13.4-72.1-24.2-108.7-34.9c-5.8-1.7-13.3-3.4-21.5-5.2c4.5,22.8,11.4,45.1,21.4,66.5
		c7.6,16.6,17.7,31.9,29.4,46.1c23.3,2.7,46.7,4.9,70.1,7.7c43,5,83.4,17.5,125.2,27.7c-11.3-21.4-21.3-43.1-30.1-63.8
		C357,424.7,324.3,415.1,294.1,403.8z"/>
	<path class="st4" d="M158.7,268.6c-1.8,25.1-1.3,50.3,2,75.1c9.6,2.6,19,5.1,28.1,7.9c28.5,8.6,57.1,17.2,85,27.5
		c28.1,10.4,70.8,21.3,96,44.2c-2.2-5.5-4.3-10.9-6.3-16c-7.9-20.4-15.4-40.9-22.8-61.4C296.5,299.4,222.7,288.3,158.7,268.6z"/>
	<path class="st4" d="M198.1,179.5c-5.8-3.5-13.7-7.6-22.3-12.2c-3.7,17-7.5,33.8-10.6,50.5c-2.2,11.6-3.9,23.3-5.1,35
		c39,13.6,79.6,23.3,117.4,39.7c14.4,6.2,36.1,15.3,53.9,27.7c-6.6-18.2-13.3-36.3-20.2-54.4C284.9,227.4,236.2,202.2,198.1,179.5z"
		/>
	<path class="st4" d="M191.9,23.4c-0.5-1.8-1.3-3.5-1.9-5.3c6.2,43.5-1.1,87.6-10.3,131.2c23.6,15.5,48.5,29.1,71.3,45.7
		c14.6,10.6,32.5,22.7,47,37c-4.1-9.9-8.2-19.8-12.6-29.6c-26.4-59.6-57.1-116.6-87.6-174C195.2,28.1,192.8,26.4,191.9,23.4z"/>
	<path class="st4" d="M386.6,584.4c-8.6-1.2-17.2-2.3-25.7-3.3c26.7,11.8,54.3,21.2,81.4,31.9c19.5,7.7,36.7,17.8,55.9,15.8
		c-13.2-11-25.5-23.9-36.9-37.8C441.6,602.5,406.1,587.2,386.6,584.4z"/>
	<path class="st4" d="M449.5,521.4c2.3,3.8,4.6,7.6,7.1,11.3c10.9,16.4,22.4,30.4,34.5,43.1c-6.6-33.3-11.1-82.5-12.3-91.2
		c-1.7-11.8-2.8-23.4-3.8-35.1C463.7,472.9,455.7,496.5,449.5,521.4z"/>
	<path class="st4" d="M222.9,29.4c-0.1,2.1-0.1,4.1-0.2,6.1c9,13.6,17.6,27.3,25.9,41.3c-0.1-3.8-0.1-7.6-0.2-11.4
		c-0.1-2.6-0.3-5.4-0.6-8.2c-8.1-9.5-15.8-19.4-22.9-29.7C224.3,28.2,223.7,28.9,222.9,29.4z"/>
	<path class="st4" d="M257.9,92.7c11.4,20.2,22.2,40.9,32.5,61.8c1-6.1,2.5-11.9,3.8-17.3c2.1-8.4,4.5-16.8,7-25.1
		c-14.3-13.5-28.4-27.3-41.6-41.6C259.2,78,258.6,85.4,257.9,92.7z"/>
	<path class="st4" d="M310,124.3c-4.2,11.3-11.4,27.8-13.4,43.1c5.5,11.5,10.8,23,16,34.7c1.4-9,3-18,5.2-26.9
		c2.9-12,5.1-26.1,9-39.2c-5.2-4.8-10.5-9.7-15.7-14.5C310.7,122.5,310.3,123.4,310,124.3z"/>
	<path class="st4" d="M327.6,177.1c-3.7,12.2-7.2,24.5-9.8,36.9c6.1,14,12.1,28.2,17.9,42.3c1.5-17.1,4.3-34.1,8.6-50.8
		c3.4-13.3,6.8-28.2,11.6-42.2c-5.6-5.4-11.3-10.8-17-16.1C335,157.6,330.5,167.8,327.6,177.1z"/>
	<path class="st4" d="M354.3,216.2c-5,18.3-9.1,36.7-12.4,55.3c5.8,14.4,11.5,28.8,17,43.3c2.6-22.2,8.9-44,17.2-64.6
		c6-14.9,12-30.8,18.8-46.3c-8.3-9.6-17.1-18.8-26.1-27.9C363.6,189.4,358,202.8,354.3,216.2z"/>
	<path class="st4" d="M393.1,247.8c-12.6,27.4-21.2,54.7-28,83.4c2.4,6.4,4.8,12.8,7.2,19.1c4.9-19.3,12.5-38.1,21-54.6
		c9.3-17.9,16.7-40.9,27-59.3c-4-5.8-8.2-11.5-12.6-17C402.7,228.9,397.5,238.3,393.1,247.8z"/>
	<path class="st4" d="M411.6,289.2c-14.6,25.2-24.7,51.1-32.8,78.2c5.4,14.3,10.8,28.6,16.5,42.9c10.8-42.3,29.7-83.5,54.4-119.6
		c-4.9-12.4-10.7-24.1-17.3-35.3C425.8,268.7,415.8,282,411.6,289.2z"/>
	<path class="st4" d="M402.9,428.6c4,9.6,8.1,19.1,12.5,28.5c3.2-13.9,9.2-28,12.5-36.4c9.5-23.8,21.8-51.5,36.7-76.3
		c-1.9-10.6-4.4-21.2-7.5-31.8C434.8,349.4,418.1,387.2,402.9,428.6z"/>
	<path class="st4" d="M439.5,426.4c-5.7,13.3-10.5,33.9-15.7,48.6c5.8,11.7,11.8,23.2,18.3,34.4c3.8-25.5,13.6-50.5,24.9-73.2
		c1.9-3.8,3.9-7.9,6-12.2c-1.1-16.2-2.2-32.4-4-48.6C457.9,391.9,447,408.6,439.5,426.4z"/>
</g>
</svg>
