<?xml version="1.0" encoding="utf-8"?>
<!-- Generator: Adobe Illustrator 19.1.0, SVG Export Plug-In . SVG Version: 6.00 Build 0)  -->
<svg version="1.1" id="Layer_1" xmlns="http://www.w3.org/2000/svg" xmlns:xlink="http://www.w3.org/1999/xlink" x="0px" y="0px"
	 viewBox="0 0 640 640" style="enable-background:new 0 0 640 640;" xml:space="preserve">
<style type="text/css">
	.st0{fill:#F1EEDF;}
	.st1{fill:#6F4433;}
	.st2{fill:#F89828;}
	.st3{fill:#F25A32;}
	.st4{fill:#746C69;}
	.st5{fill:#D39C70;}
	.st6{fill:#DC9E98;}
	.st7{fill:#FFFFFF;}
</style>
<g>
	<path class="st4" d="M88.8,275.5C88.8,275.5,88.8,275.5,88.8,275.5C88.8,275.5,88.8,275.5,88.8,275.5z"/>
	<path class="st4" d="M606.2,256.5c-0.8-68.1-10.7-147.4-71.3-188.7c-54.8-37.3-121.9,4.3-151.7,52.1
		c-25.4,40.7-29.9,109.9-10,159.6c-13.2-9.5-26.7-18.3-40.6-26.2c-74.5-42.3-217-80.1-278.7,5.1c-63.4,87.5,2.4,156.8,107.9,207.5
		c-3.6-4-5.7-9.1-5-15.6c1.8-16.6,16.6-25.9,32.7-24.3c10.5,1.1,10.6,17.6,0,16.5c-4.4-0.5-8.8-0.4-12.5,2.2
		c-2.1,1.5-3.6,4.2-3.7,5.6c-0.1,2.7,0.3,4.6,2.9,6.6c3.5,2.8,9.1,2.7,13.3,2.6c10.6-0.4,10.6,16.1,0,16.5c-2,0.1-4.1,0-6.2-0.3
		C326.6,538.5,527,569.8,587.7,569c4.8,0,7.8-3.7,8.2-8.2C606.9,460.8,607.3,357.2,606.2,256.5z M358.1,312.7
		c20.2-31.6,71.7-11.2,74,23c0.7,10.6-15.8,10.6-16.5,0c-0.7-10.3-12.6-19.9-22.1-21.8c-5.5-1.1-24.4,1.2-21.5,10.8
		c4.4,14.4,23.7,25.3,37.3,29.1c10.2,2.8,5.9,18.7-4.4,15.9C386.3,364.5,342,337.9,358.1,312.7z M291.3,275.7
		c0.4-2.7,3.3-5.2,5.8-5.8c9-2,17.7-2,26.7,0c10.4,2.4,6,18.3-4.4,15.9c-4-0.9-8-1-12-0.7c0.8,2.8,2.9,4.4,7,5.3
		c10.4,2,6,17.9-4.4,15.9C294.4,303.3,289.2,290.3,291.3,275.7z M301.4,313c7.8,7.3-3.9,19-11.7,11.7
		c-11.3-10.6-37.7-25.1-53.3-15.8c-9.8,5.8-10.1,15.5-6.1,25.1c0.8,1.9,11.2,21.7,12.7,20.6c8.6-6.3,16.8,8.1,8.3,14.2
		c-13.3,9.7-26.8-9.3-31.9-19.4c-7.7-15.1-12-29.4-2.4-44.7C235.4,275.4,282.4,295.1,301.4,313z M137,232c1.5-7,6.2-12.5,12.8-15.2
		c7.8-3.1,16.4-0.2,23.3,3.7c9.2,5.3,0.9,19.6-8.3,14.2c-2.1-1.2-4.2-2.3-6.7-2.7c-1.1-0.2-2-0.1-3.2,0.4c0.7-0.3-1.1,1.3-0.6,0.6
		c-0.2,0.3-0.9,2-0.9,1.8c-0.1,0.4-0.2,0.7-0.3,1.1c0,0.3-0.1,1.7-0.1,2c0,0.3,0,0.3,0,0.5c0,0.1,0,0.1,0.1,0.3
		c0.1,0.3,0.7,1.8,0.7,2c0.2,0.3,0.5,0.7,0.5,0.8c0.5,0.4,1.2,1.1,1.1,1.1c0.6,0.3,1.6,0.8,0.6,0.5c2.3,0.8,3,0.8,5.5,0.7
		c10.6-0.5,10.6,16,0,16.5C145.9,260.9,133.6,247.6,137,232z M75.8,257.4c5.4-7.1,12.8-11.7,21.9-12.1c11.6-0.6,21.7,5.1,30.6,12
		c3.6,2.8,2.9,8.8,0,11.7c-3.5,3.5-8.1,2.8-11.7,0c-5.3-4.1-12.1-7.8-18.9-7.1c-1.6,0.2-3.5,0.7-5.3,1.9c-0.7,0.4-2.5,2.2-2.9,2.7
		c-1.9,3-2.5,4.9-1.5,7.8c-0.2-0.8,1.4,1.9,0.9,1.5c0.6,0.5,2,1.7,1.3,1.3c2.2,1.4,3.8,1.8,6.5,2.3c10.4,2.1,6,18-4.4,15.9
		c-8.9-1.8-17.2-7.3-20-16.3C70,271.9,71.3,263.3,75.8,257.4z M92.2,333.4c-7.1-4.9-31.7-20.9-36.3-4.5c-4.2,15,6,30.3,16.5,40
		c7.8,7.2-3.9,18.9-11.7,11.7c-15.3-14.2-29.4-39.7-18.9-60.7c12.1-24.3,42-12.3,58.7-0.7C109.2,325.2,101,339.5,92.2,333.4z
		 M166.9,393.6c-11.6-10-32.6-22.1-36.5,0.6c-1.9,11.3,2.1,30.8,16.2,31.9c10.5,0.8,10.6,17.3,0,16.5c-26.1-1.9-37.9-32.2-31.6-55.1
		c3-10.9,10.3-20.7,21.9-22.8c15.8-2.9,30.3,7.6,41.6,17.3C186.6,388.8,174.9,400.4,166.9,393.6z M181.6,309.2
		c-12.3-5.7-34.2-21.1-48.3-15.2c-11.4,4.8-7.3,23.6-0.4,30.2c7.5,7.2,16.4,11,26.8,10.6c10.6-0.4,10.6,16.1,0,16.5
		c-32.1,1.3-64.7-33.4-43.3-64.1c17.1-24.5,54.4-1.1,73.5,7.8C199.5,299.5,191.1,313.7,181.6,309.2z M184.1,267.5
		c-3.1-7.2-1.8-14.4,3.2-20.5c14.2-16.8,37.8-5.5,50.7,6.4c7.8,7.2-3.9,18.9-11.7,11.7c-4.6-4.2-11.1-9.5-17.4-10
		c-2.8-0.2-3.8-0.3-6.1,0.6c-0.7,0.2-2.1,1.1-2.4,1.4c-0.3,0.3-0.7,0.6-1,1c0,0,0,0,0,0c-0.3,0.5-0.5,0.7-0.5,0.8c0,0.1,0,0,0,0.2
		c-0.1,0.2-0.1,0.2-0.1,0.3c0.5,0.2,1,0.6,0.1,0.4c1.8,0.5,2.8,0.6,5.4,0.5c10.6-0.5,10.6,16,0,16.5
		C197.1,277.2,187.3,275,184.1,267.5z M250.6,469.9c-17.5-14.4-35.3-35.5-43.9-56.5c-3.2-7.9-4.4-17.8,3.4-23.4
		c9.5-6.8,24.2-0.8,33.6,2.9c9.8,3.8,5.6,19.8-4.4,15.9c-5.4-2.1-11.8-5.1-17.7-5.2c-0.5,0-0.6-0.1-0.8-0.1c0.9,6.2,5.6,12.7,9,17.6
		c9.1,13.4,19.9,26.8,32.5,37.2C270.5,465,258.8,476.6,250.6,469.9z M283.6,379.8c12.3-18.1,39.1-21.9,58.8-16.7
		c10.3,2.7,5.9,18.6-4.4,15.9c-12.4-3.3-29.2-2.1-38.6,7.6c-10.9,11.2,8,18.3,17,21.1c10.1,3.2,5.8,19.1-4.4,15.9
		C293.5,417.8,268.7,401.8,283.6,379.8z M366.3,461.1c-15.3-1.2-33.8,3.3-37.5,20.6c-2.5,11.6,3.8,17.6,14.8,13.5
		c10-3.7,14.3,12.2,4.4,15.9c-20.6,7.7-38.6-7.3-35.9-28.9c3.4-26.9,29.3-39.5,54.2-37.5C376.8,445.5,376.9,462,366.3,461.1z
		 M431.1,494.3c-3.6-0.7-9.9-2.2-13.5-0.1c0,0.1-0.1,0.2-0.1,0.1c0,1.1,0.1,1.9,0.5,3.1c2.4,7.8,8,14.5,13.7,20.2
		c7.5,7.6-4.2,19.3-11.7,11.7c-8.9-9.1-19.8-22.4-18.9-36c1.2-17.8,21.4-17.4,34.4-15C445.9,480.3,441.5,496.3,431.1,494.3z
		 M463,418.3c-10.8-1.4-56.2-16.4-56,4.7c0.2,18.4,31.9,29.2,46.7,30.9c10.4,1.2,10.6,17.7,0,16.5c-21.6-2.5-66.5-18.7-63.2-47.4
		c4.5-38.9,46.9-24.5,72.5-21.2C473.4,403.2,473.6,419.7,463,418.3z M467.2,387.6c-1.7-9.5,3-19.1,10-25.5
		c6.9-6.3,16.7-11.5,26.3-10.4c11.4,1.3,19.8,8.3,24.3,18.8c1.8,4.1,1.3,8.8-3,11.3c-3.5,2.1-9.5,1.2-11.3-3c-0.9-2.1-1.8-4.1-3.1-6
		c-0.4-0.6-2.3-2.6-2.2-2.4c-2.7-1.9-4.1-2.4-6.3-2.3c-4.3,0-9.5,2.2-13.1,5.7c-2.6,2.5-3.2,3-4.8,6.4c-0.1,0.2-0.4,0.9-0.6,2.1
		c0,0.1-0.1,1.4-0.1,2.1c0.1-0.3,0.6,1.2,0.6,1.3c0.2,0.2,1.3,1.5,1.2,1.4c3.1,2.1,6.1,3,9.9,3.8c10.4,2.2,6,18.1-4.4,15.9
		C480.4,404.7,469.2,398.9,467.2,387.6z M541.2,524.4c-9.5-0.5-19.8,3.2-26.1,10.3c-0.6,0.7-0.5,0.4-0.9,1.1
		c0.4,0.1,0.6,0.2,0.4,0.2c3.3,0.3,6.5,0.2,9.8-0.1c10.6-0.9,10.5,15.6,0,16.5c-8,0.7-17.9,0.6-23.8-5.7c-4.8-5.1-4.5-13-0.9-18.7
		c8.5-13.3,26-20.8,41.5-20.1C551.8,508.4,551.8,524.9,541.2,524.4z M548.3,449.7c-13.1-4.2-36.1-10.9-47.2,0.8
		c-11.8,12.5,11.8,28,21.8,31.6c9.9,3.6,5.6,19.5-4.4,15.9c-18-6.5-50.1-31.6-33.4-54c16.1-21.5,44.8-17.6,67.6-10.3
		C562.8,437,558.5,452.9,548.3,449.7z M578.1,485c-1.7-0.5-2.7-0.3-4,1.1c-1.7,1.7-2.8,3.4-3.4,6.2c-0.2,0.7-0.4,1.9-0.2,3.7
		c-0.1-0.7,1,1.5,0.3,0.8c0.6,0.6,1.2,1.2,2.5,1.5c1.7,0.4,3.4,0.3,5.1,0.3c10.6-0.5,10.6,16,0,16.5c-15.4,0.7-27.4-10.4-23.9-26.3
		c2.8-12.5,14.5-23.6,27.9-19.7C592.7,472.1,588.3,488,578.1,485z"/>
</g>
</svg>
