<?xml version="1.0" encoding="utf-8"?>
<!-- Generator: Adobe Illustrator 19.1.0, SVG Export Plug-In . SVG Version: 6.00 Build 0)  -->
<svg version="1.1" id="Layer_1" xmlns="http://www.w3.org/2000/svg" xmlns:xlink="http://www.w3.org/1999/xlink" x="0px" y="0px"
	 viewBox="0 0 640 640" style="enable-background:new 0 0 640 640;" xml:space="preserve">
<style type="text/css">
	.st0{fill:#F1EEDF;}
	.st1{fill:#6F4433;}
	.st2{fill:#F89828;}
	.st3{fill:#F25A32;}
	.st4{fill:#746C69;}
	.st5{fill:#D39C70;}
	.st6{fill:#DC9E98;}
	.st7{fill:#FFFFFF;}
</style>
<path class="st4" d="M622.4,328.6c-3.8,2.3-15.2-9.5-25.3-26.3c-10.2-16.8-15.3-32.3-11.5-34.6c3.8-2.3,15.2,9.4,25.3,26.3
	C621.1,310.7,626.2,326.3,622.4,328.6z"/>
<path class="st7" d="M613.7,292.2c-7.8-13-19.6-28.1-27-28.1c-1,0-2,0.3-2.8,0.8c-9.2,5.6,7,33.5,10.4,39.1
	c7.8,13,19.6,28.1,27,28.1c1,0,2-0.3,2.8-0.8C633.3,325.7,617.1,297.8,613.7,292.2z M599.9,300.6c-9.3-15.5-12.5-26.3-12.3-29.8
	c3.1,1.5,11.3,9.3,20.6,24.7c9.3,15.5,12.5,26.3,12.3,29.8C617.4,323.9,609.2,316.1,599.9,300.6z"/>
<path class="st7" d="M325.3,519.7c-16.7,0-32.4-4.9-39.2-12.3c-0.7-0.8-1-1.9-0.8-2.9c2.4-10.6,3.9-22.5,3.9-29.5
	c0-29-13.4-58.3-43.3-58.3c-17.2,0-33.3,8.8-43.3,23.5c-0.5,0.7-1.2,1.2-1.9,1.3c-9.1,17-21.4,31.2-35.9,41.4
	c-17.9,12.7-39.9,19.8-61.8,19.8c-9.9,0-19.6-1.4-28.9-4.2C58,493.8,43.8,485,32.9,473.2c-10.8-11.4-15.5-24.6-17.5-33.7
	c-0.1-0.4-0.1-0.8,0-1.3c2.2-12.7,24.6-19.6,39.2-19.6c8.9,0,14.9,2.4,17.3,6.9c5.9,11.2,12.8,16.9,22.4,18.4
	c10.4,1.6,22.3-2.3,29.9-9.7c7.8-7.6,12.7-18.8,14.1-32.6c0.8-8.1,0.5-16.9-1-27c-7.3-17.1-11-34.8-11-52.7
	c0-96.9,106.9-175.8,238.3-175.8c131.4,0,238.3,78.9,238.3,175.8c0,30.5-4.8,77.4-18.4,117.5c-16.3,48.1-41.3,73.5-72.2,73.5
	c0,0,0,0,0,0c-7.2,0-14.7-1.4-22.5-4.1c-1.3-0.5-2.2-1.7-2.2-3v-39.4c0-32.8-26.4-54-67.3-54c-0.9,0-1.8,0-2.8,0
	c-30.3,0.7-54,24.4-54,53.9c0.7,10.1,2.7,37.3,2.9,39c0.1,1.2-0.4,2.4-1.4,3C351.1,517.7,335.7,519.7,325.3,519.7z M292,504.1
	c5.5,4.7,18.1,9.1,33.3,9.1c9.1,0,22.4-1.6,34.6-9.1c-0.7-8-2.7-36.1-2.8-37.4c0-33.4,26.5-59.9,60.3-60.6c1,0,2,0,2.9,0
	c50.9,0,73.7,30.4,73.7,60.4v37c6.3,2,12.4,3,18.2,3c35.2,0,55.4-37.6,66-69.1c13.3-39.3,18.1-85.4,18.1-115.4
	c0-93.4-104-169.3-231.8-169.3c-127.8,0-231.8,76-231.8,169.3c0,17.2,3.6,34.2,10.6,50.6c0.1,0.3,0.2,0.5,0.2,0.8
	c1.6,10.8,1.9,20.3,1.1,29c-1.5,15.3-7.1,28-16,36.6c-8.9,8.8-22.9,13.4-35.3,11.5c-11.7-1.8-20.4-8.7-27.2-21.8
	c-0.9-1.7-4.4-3.4-11.5-3.4c-13.3,0-30.6,6.3-32.7,13.7c1.9,8.2,6.2,19.9,15.7,30c10.1,11,23.4,19.1,38.4,23.5
	c28,8.4,60.7,2.7,85.2-14.7c14.3-10,26.4-24.3,35-41.3c0.4-0.8,1.2-1.4,2.1-1.7c0.2,0,0.3-0.1,0.5-0.1
	c11.2-15.3,28.7-24.3,47.2-24.3c34.4,0,49.8,32.5,49.8,64.8C295.7,482.2,294.3,493.5,292,504.1z"/>
<path class="st4" d="M364.6,149.3c-9.4,0-18.8,0.4-27.9,1.2c20.8,9,38.8,24.3,51.1,43.3c13.8,21,20.7,46.5,19.6,71.4
	c-1,25.2-9.9,49.9-25.6,69.5c-15.4,19.7-37.6,34-61.7,39.7c-24.1,5.8-49.9,2.8-71.2-8.1c-1.5-0.8-2.2-2.7-1.4-4.2
	c0.7-1.4,2.3-2,3.8-1.6c21.4,7.2,44.5,7.3,65.2,0.7c10.3-3.3,20.1-8.2,28.8-14.5c8.7-6.3,16.3-14,22.7-22.6
	c12.7-17.2,20.1-38.2,20.7-59.5c0.9-21.4-4.7-42.9-16.3-60.8c-11.5-17.9-28.5-32.4-48.5-40c-9.9-3.8-20.6-6-31.2-6.4
	c-10.9-0.4-21.6,0.9-31.9,4c-20.7,6-39.3,19.4-52.6,36.9c-13.4,17.6-21,39.5-22.1,62.1c-0.1,1.7-1.6,3.1-3.3,3c-1.6-0.1-2.9-1.4-3-3
	v-0.1c-0.9-18.6,3.1-37.7,11.3-54.8c-38.2,30.7-61.5,71.5-61.5,116.3c0,18.1,3.8,35.5,10.9,51.9c1.5,9.9,1.9,19.3,1,28.2
	c-1.5,14.7-6.7,26.5-15,34.6c-8.2,8.1-20.9,12.4-32.6,10.6c-11.7-1.8-19-9-24.8-20.1c-5.8-11.1-47.9-3-50.4,11.8
	c1.6,7.3,5.7,20.5,16.7,32.2c10.9,11.8,25,20,39.8,24.4c29.7,8.9,62.6,2.9,88-15.1c15.8-11.1,27.8-26.2,36.1-42.5
	c0.3,0.2,0.6,0.4,0.9,0.6c10.2-15,26.9-24.9,46-24.9c31.1,0,46.5,29.3,46.5,61.5c0,7.3-1.6,19.3-4,30.2
	c10.1,10.9,48.1,18.3,74.8,0.5c-0.2-2.1-3-39.4-3-39.4c0-31.6,25.6-56.5,57.1-57.2c48.5-1.1,73.3,25.6,73.3,57.2v39.4
	c85.2,29.7,108.8-117.8,108.8-183.9C599.6,226.5,494.4,149.3,364.6,149.3z M178.7,379.6c-5,1-10.8-7-13.1-17.9
	c-2.3-10.9-0.1-20.6,4.8-21.6c5-1,10.8,7,13.1,17.9C185.8,368.9,183.7,378.6,178.7,379.6z"/>
</svg>
